# xmcd
#
# Track frame offsets:
# 150
# 26778
# 55386
# 71122
# 89234
# 103642
# 120686
# 135311
# 161237
# 181263
# 205866
# 225074
# 250627
# 267895
# 290177
#
# Disc length: 4185 seconds
#
# Revision: 0
# Processed by: cddbd v1.4PL0 Copyright (c) Steve Scherf et al.
# Submitted via: Audion 2.5.0 (http://www.panic.com/audion/)
#
DISCID=db10570f
DTITLE=Jose Padilla - Cafe del Mar greatest vol. II
DYEAR=1900
DGENRE=
TTITLE0=Talvin Singh - Traveller
TTITLE1=Bedrock - Beautiful Strange
TTITLE2=The Ballistic Brothers - Uschi ´s Groove
TTITLE3=Aromabar - Winter Pagent
TTITLE4=Endorphin - Satie I.
TTITLE5=Underwolves - 68 Moves
TTITLE6=Wim Mertens - Close Cover
TTITLE7=Les Negresses Vertes - Face a la Mer
TTITLE8=Paco Fernandez feat. Levitation - Oh Home
TTITLE9=Bush - Letting the Cables sleep
TTITLE10=Marc Collin - Les Kidnapper
TTITLE11=Salt tank - Angels Landing
TTITLE12=Moonrock - I´ll Street Blues
TTITLE13=Oystein Sevag - Cahuita
TTITLE14=Rae and Christian - A distant invitation
EXTD=
EXTT0=
EXTT1=
EXTT2=
EXTT3=
EXTT4=
EXTT5=
EXTT6=
EXTT7=
EXTT8=
EXTT9=
EXTT10=
EXTT11=
EXTT12=
EXTT13=
EXTT14=
PLAYORDER=
